<?xml version="1.0" encoding="utf-8"?>
<!-- Generator: Adobe Illustrator 21.1.0, SVG Export Plug-In . SVG Version: 6.00 Build 0)  -->
<svg version="1.1" id="Layer_1" xmlns="http://www.w3.org/2000/svg" xmlns:xlink="http://www.w3.org/1999/xlink" x="0px" y="0px"
	 viewBox="0 0 201.5 201.4" style="enable-background:new 0 0 201.5 201.4;" xml:space="preserve">
<style type="text/css">
	.st0{fill:none;stroke:#231F20;stroke-width:12;stroke-linecap:round;stroke-linejoin:round;stroke-miterlimit:10;}
	.st1{fill:#FFFFFF;stroke:#231F20;stroke-width:12;stroke-linecap:round;stroke-linejoin:round;stroke-miterlimit:10;}
	.st2{fill:#FFFFFF;stroke:#231F20;stroke-width:12;stroke-miterlimit:10;}
	.st3{fill:none;stroke:#231F20;stroke-width:12;stroke-miterlimit:10;}
	.st4{fill:#929292;}
	.st5{clip-path:url(#SVGID_2_);}
	.st6{clip-path:url(#SVGID_4_);fill:#999999;}
	.st7{clip-path:url(#SVGID_6_);}
	.st8{clip-path:url(#SVGID_8_);fill:#333333;}
	.st9{clip-path:url(#SVGID_10_);}
	.st10{clip-path:url(#SVGID_12_);fill:#009848;}
	.st11{clip-path:url(#SVGID_14_);}
	.st12{clip-path:url(#SVGID_16_);fill:#4DB848;}
	.st13{clip-path:url(#SVGID_18_);}
	.st14{clip-path:url(#SVGID_20_);fill:#FAFAFA;}
	.st15{clip-path:url(#SVGID_22_);}
	.st16{clip-path:url(#SVGID_24_);fill:#2C358F;}
	.st17{clip-path:url(#SVGID_26_);}
	.st18{clip-path:url(#SVGID_28_);fill:#144FA2;}
	.st19{clip-path:url(#SVGID_30_);}
	.st20{clip-path:url(#SVGID_32_);fill:#D79629;}
	.st21{clip-path:url(#SVGID_34_);}
	.st22{clip-path:url(#SVGID_36_);fill:#DCC323;}
	.st23{fill:#009848;}
	.st24{fill:#144FA2;}
	.st25{fill:#D79629;}
	.st26{fill:#231F20;}
	.st27{fill:none;}
	.st28{fill:none;stroke:#FFFFFF;stroke-width:5;stroke-miterlimit:10;}
	.st29{fill:none;stroke:#000000;stroke-width:8;stroke-miterlimit:10;}
	.st30{fill:#FFFFFF;}
</style>
<path class="st0" d="M-685.6-2605h-36.7c-39.5,0-71.5-32-71.5-71.5c0-39.5,32-71.5,71.5-71.5c20.5,0,39,8.6,52.1,22.5"/>
<path class="st0" d="M-536.5-2728.8c12.8-11.9,29.9-19.2,48.7-19.2c39.5,0,71.5,32,71.5,71.5c0,39.5-32,71.5-71.5,71.5h-30.7"/>
<path class="st1" d="M-687.1-2738.7c0,0,24.4-8,31.5-24.4"/>
<path class="st0" d="M-559.6-2797.8c-26.2-21.7-64.3-21.8-90.6-0.3"/>
<path class="st0" d="M-484.2-2751c-3.4-9.6-9-18.7-16.8-26.4c-20.9-20.9-51.6-26.2-77.5-15.7"/>
<path class="st0" d="M-587.1-2726.8c0-39.5-32-71.5-71.5-71.5c-32.1,0-59.2,21.1-68.3,50.2"/>
<circle class="st2" cx="-587.1" cy="-2646.3" r="10.3"/>
<circle class="st2" cx="-619.4" cy="-2700" r="10.3"/>
<circle class="st2" cx="-653.1" cy="-2672.6" r="10.3"/>
<circle class="st2" cx="-552.8" cy="-2672.6" r="10.3"/>
<polyline class="st1" points="-653.1,-2662.2 -653.1,-2547.3 -763.2,-2547.3 -763.2,-2373.3 -451.8,-2373.3 -451.8,-2547.3 
	-518.5,-2547.3 "/>
<polyline class="st0" points="-552.8,-2662.2 -552.8,-2500.6 -484.2,-2500.6 "/>
<polyline class="st0" points="-587.1,-2635.9 -587.1,-2476.5 -484.2,-2476.5 "/>
<polyline class="st0" points="-619.4,-2689.6 -619.4,-2472.5 -732,-2472.5 "/>
<path class="st0" d="M-552.8-2618.9c0-10.8,10.3-27.3,21.5-27.3"/>
<path class="st0" d="M-653.1-2618.9c0-17.5-18.6-28-39.5-27.3"/>
<line class="st1" x1="-732" y1="-2500.6" x2="-653.1" y2="-2500.6"/>
<line class="st1" x1="-732" y1="-2444.4" x2="-484.2" y2="-2444.4"/>
<line class="st1" x1="-732" y1="-2416.3" x2="-484.2" y2="-2416.3"/>
<path class="st1" d="M-458.5-2700c-13.3,0-25.7,14.1-25.7,27.4"/>
<path class="st1" d="M-744.5-2710.3c15.7,0,31.3,9.6,31.3,30.3"/>
<path class="st1" d="M-477.7-2689.6c0,0-6.1-11-24.8-10.3"/>
<path class="st0" d="M-687.1-2569.7h-98.8v218h156.1c0,33.2-25.3,43.7-39.1,46.9c-5.1,1.2-8.7,5.8-8.7,11l0,0
	c0,6.3,5.1,11.4,11.4,11.4h58.6h58.6c6.3,0,11.4-5.1,11.4-11.4l0,0c0-5.2-3.6-9.8-8.7-11c-13.8-3.2-39.1-13.7-39.1-46.9h156.1v-218
	h-89.4"/>
<path class="st0" d="M-1247.6-1824.1h-36.7c-39.5,0-71.5-32-71.5-71.5c0-39.5,32-71.5,71.5-71.5c20.5,0,39,8.6,52.1,22.5"/>
<path class="st0" d="M-1098.4-1947.9c12.8-11.9,29.9-19.2,48.7-19.2c39.5,0,71.5,32,71.5,71.5c0,39.5-32,71.5-71.5,71.5h-30.7"/>
<path class="st1" d="M-1249-1957.8c0,0,24.4-8,31.5-24.4"/>
<path class="st0" d="M-1121.5-2016.9c-26.2-21.7-64.3-21.8-90.6-0.3"/>
<path class="st0" d="M-1046.1-1970c-3.4-9.6-9-18.7-16.8-26.4c-20.9-20.9-51.6-26.2-77.5-15.7"/>
<path class="st0" d="M-1149-1945.9c0-39.5-32-71.5-71.5-71.5c-32.1,0-59.2,21.1-68.3,50.2"/>
<circle class="st2" cx="-1149" cy="-1865.3" r="10.3"/>
<circle class="st2" cx="-1181.4" cy="-1919" r="10.3"/>
<circle class="st2" cx="-1215.1" cy="-1891.6" r="10.3"/>
<circle class="st2" cx="-1114.8" cy="-1891.6" r="10.3"/>
<line class="st0" x1="-1114.8" y1="-1881.3" x2="-1114.8" y2="-1755"/>
<line class="st0" x1="-1149" y1="-1855" x2="-1149" y2="-1685.2"/>
<line class="st0" x1="-1181.4" y1="-1908.6" x2="-1181.4" y2="-1726.9"/>
<path class="st0" d="M-1114.8-1838c0-10.8,10.3-27.3,21.5-27.3"/>
<path class="st0" d="M-1215.1-1755v-83c0-22.4-18.6-28-39.5-27.3"/>
<path class="st1" d="M-1020.4-1919c-13.3,0-25.7,14.1-25.7,27.4"/>
<path class="st1" d="M-1306.4-1929.3c15.7,0,31.3,9.6,31.3,30.3"/>
<path class="st1" d="M-1039.7-1908.6c0,0-6.1-11-24.8-10.3"/>
<path class="st1" d="M-1102.4-1977c0,0-6.1-11-24.8-10.3"/>
<path class="st0" d="M49.6-1866.9h-62.5v137.9h98.7c0,28.9-30.2,30.6-30.2,30.6v13.3c0,0,0,0,0,0H100h44.3c0,0,0,0,0,0v-13.3
	c0,0-30.2-1.7-30.2-30.6h98.7v-137.9h-56.5"/>
<path class="st0" d="M138.9-2524.4v36.7c0,39.5-32,71.5-71.5,71.5c-39.5,0-71.5-32-71.5-71.5c0-20.5,8.6-39,22.5-52.1"/>
<path class="st0" d="M15.1-2673.6c-11.9-12.8-19.2-29.9-19.2-48.7c0-39.5,32-71.5,71.5-71.5c39.5,0,71.5,32,71.5,71.5"/>
<path class="st1" d="M5.2-2523c0,0-8-24.4-24.4-31.5"/>
<path class="st0" d="M-53.8-2650.5c-21.7,26.2-21.8,64.3-0.3,90.6"/>
<path class="st0" d="M-7-2725.9c-9.6,3.4-18.7,9-26.4,16.8c-20.9,20.9-26.2,51.6-15.7,77.5"/>
<path class="st0" d="M17.1-2622.9c-39.5,0-71.5,32-71.5,71.5c0,32.1,21.1,59.2,50.2,68.3"/>
<circle class="st2" cx="97.7" cy="-2622.9" r="10.3"/>
<circle class="st2" cx="44" cy="-2590.6" r="10.3"/>
<circle class="st2" cx="71.4" cy="-2556.9" r="10.3"/>
<circle class="st2" cx="71.4" cy="-2657.2" r="10.3"/>
<line class="st1" x1="81.7" y1="-2556.9" x2="162.6" y2="-2556.9"/>
<line class="st0" x1="81.7" y1="-2657.2" x2="162.6" y2="-2657.2"/>
<line class="st0" x1="108" y1="-2622.9" x2="162.6" y2="-2622.9"/>
<line class="st0" x1="54.4" y1="-2590.6" x2="162.6" y2="-2590.6"/>
<path class="st0" d="M125-2657.2c-10.8,0-27.3-10.3-27.3-21.5"/>
<path class="st1" d="M44-2751.6c0,13.3,14.1,25.7,27.4,25.7"/>
<path class="st1" d="M33.7-2465.6c0-15.7,9.6-31.3,30.3-31.3"/>
<path class="st1" d="M54.4-2732.3c0,0-11,6.1-10.3,24.8"/>
<path class="st0" d="M139-2524.4v36.7c0,39.5,32,71.5,71.5,71.5c39.5,0,71.5-32,71.5-71.5c0-20.5-8.6-39-22.5-52.1"/>
<path class="st0" d="M262.8-2673.6c11.9-12.8,19.2-29.9,19.2-48.7c0-39.5-32-71.5-71.5-71.5c-39.5,0-71.5,32-71.5,71.5"/>
<path class="st1" d="M272.7-2523c0,0,8-24.4,24.4-31.5"/>
<path class="st0" d="M331.8-2650.5c21.7,26.2,21.8,64.3,0.3,90.6"/>
<path class="st0" d="M284.9-2725.9c9.6,3.4,18.7,9,26.4,16.8c20.9,20.9,26.2,51.6,15.7,77.5"/>
<path class="st0" d="M260.8-2622.9c39.5,0,71.5,32,71.5,71.5c0,32.1-21.1,59.2-50.2,68.3"/>
<circle class="st2" cx="180.2" cy="-2622.9" r="10.3"/>
<circle class="st2" cx="233.9" cy="-2590.6" r="10.3"/>
<circle class="st2" cx="206.6" cy="-2556.9" r="10.3"/>
<circle class="st3" cx="190.8" cy="-2258" r="14.6"/>
<circle class="st3" cx="-24.6" cy="-1943.7" r="14.6"/>
<circle class="st3" cx="100" cy="-2023.9" r="14.6"/>
<circle class="st3" cx="226.1" cy="-1943.7" r="14.6"/>
<circle class="st3" cx="138.9" cy="-2323.9" r="14.6"/>
<circle class="st3" cx="82.9" cy="-2280.2" r="15.8"/>
<circle class="st2" cx="206.6" cy="-2657.2" r="10.3"/>
<line class="st1" x1="196.2" y1="-2556.9" x2="115.4" y2="-2556.9"/>
<line class="st0" x1="196.2" y1="-2657.2" x2="115.4" y2="-2657.2"/>
<line class="st0" x1="169.9" y1="-2622.9" x2="115.4" y2="-2622.9"/>
<line class="st0" x1="223.6" y1="-2590.6" x2="115.4" y2="-2590.6"/>
<path class="st0" d="M111.6-2556.9c17.5,0,28,11.7,27.3,32.5v181"/>
<path class="st1" d="M233.9-2751.6c0,13.3-14.1,25.7-27.4,25.7"/>
<path class="st1" d="M244.3-2465.6c0-15.7-9.6-31.3-30.3-31.3"/>
<path class="st1" d="M223.6-2732.3c0,0,11,6.1,10.3,24.8"/>
<g>
	<text transform="matrix(1 0 0 1 -1204.4515 -1065.0746)" class="st4" style="font-family:'Ubuntu-Light'; font-size:14.9739px;">#999999</text>
</g>
<g>
	<defs>
		<path id="SVGID_1_" d="M-1202.6-1196.1h99.2c1,0,1.9,0.8,1.9,1.9v99.2c0,1-0.8,1.9-1.9,1.9h-99.2c-1,0-1.9-0.8-1.9-1.9v-99.2
			C-1204.5-1195.3-1203.6-1196.1-1202.6-1196.1z"/>
	</defs>
	<clipPath id="SVGID_2_">
		<use xlink:href="#SVGID_1_"  style="overflow:visible;"/>
	</clipPath>
	<g class="st5">
		<defs>
			<rect id="SVGID_3_" x="-1691.1" y="-1879.3" width="1113.7" height="4698"/>
		</defs>
		<clipPath id="SVGID_4_">
			<use xlink:href="#SVGID_3_"  style="overflow:visible;"/>
		</clipPath>
		<rect x="-1209.1" y="-1200.8" class="st6" width="112.3" height="112.3"/>
	</g>
</g>
<g>
	<text transform="matrix(1 0 0 1 -1326.1141 -1065.0746)" class="st4" style="font-family:'Ubuntu-Light'; font-size:14.9739px;">#333333</text>
</g>
<g>
	<defs>
		<path id="SVGID_5_" d="M-1324.2-1196.1h99.2c1,0,1.9,0.8,1.9,1.9v99.2c0,1-0.8,1.9-1.9,1.9h-99.2c-1,0-1.9-0.8-1.9-1.9v-99.2
			C-1326.1-1195.3-1325.3-1196.1-1324.2-1196.1z"/>
	</defs>
	<clipPath id="SVGID_6_">
		<use xlink:href="#SVGID_5_"  style="overflow:visible;"/>
	</clipPath>
	<g class="st7">
		<defs>
			<rect id="SVGID_7_" x="-1691.1" y="-1879.3" width="1113.7" height="4698"/>
		</defs>
		<clipPath id="SVGID_8_">
			<use xlink:href="#SVGID_7_"  style="overflow:visible;"/>
		</clipPath>
		<rect x="-1330.8" y="-1200.8" class="st8" width="112.3" height="112.3"/>
	</g>
</g>
<g>
	<text transform="matrix(1 0 0 1 -1448.7123 -1065.0746)" class="st4" style="font-family:'Ubuntu-Light'; font-size:14.9739px;">#009848</text>
</g>
<g>
	<defs>
		<path id="SVGID_9_" d="M-1446.8-1196.1h99.2c1,0,1.9,0.8,1.9,1.9v99.2c0,1-0.8,1.9-1.9,1.9h-99.2c-1,0-1.9-0.8-1.9-1.9v-99.2
			C-1448.7-1195.3-1447.9-1196.1-1446.8-1196.1z"/>
	</defs>
	<clipPath id="SVGID_10_">
		<use xlink:href="#SVGID_9_"  style="overflow:visible;"/>
	</clipPath>
	<g class="st9">
		<defs>
			<rect id="SVGID_11_" x="-1691.1" y="-1879.3" width="1113.7" height="4698"/>
		</defs>
		<clipPath id="SVGID_12_">
			<use xlink:href="#SVGID_11_"  style="overflow:visible;"/>
		</clipPath>
		<rect x="-1453.4" y="-1200.8" class="st10" width="112.3" height="112.3"/>
	</g>
</g>
<g>
	<defs>
		<path id="SVGID_13_" d="M-1568.5-1196.1h99.2c1,0,1.9,0.8,1.9,1.9v99.2c0,1-0.8,1.9-1.9,1.9h-99.2c-1,0-1.9-0.8-1.9-1.9v-99.2
			C-1570.4-1195.3-1569.5-1196.1-1568.5-1196.1z"/>
	</defs>
	<clipPath id="SVGID_14_">
		<use xlink:href="#SVGID_13_"  style="overflow:visible;"/>
	</clipPath>
	<g class="st11">
		<defs>
			<rect id="SVGID_15_" x="-1691.1" y="-1879.3" width="1113.7" height="4698"/>
		</defs>
		<clipPath id="SVGID_16_">
			<use xlink:href="#SVGID_15_"  style="overflow:visible;"/>
		</clipPath>
		<rect x="-1575.1" y="-1200.8" class="st12" width="112.3" height="112.3"/>
	</g>
</g>
<g>
	<text transform="matrix(1 0 0 1 -1570.3754 -1065.0746)" class="st4" style="font-family:'Ubuntu-Light'; font-size:14.9739px;">#4DB848</text>
</g>
<g>
	<defs>
		<path id="SVGID_17_" d="M-1080.9-1344h99.2c1,0,1.9,0.8,1.9,1.9v99.2c0,1-0.8,1.9-1.9,1.9h-99.2c-1,0-1.9-0.8-1.9-1.9v-99.2
			C-1082.8-1343.1-1082-1344-1080.9-1344z"/>
	</defs>
	<clipPath id="SVGID_18_">
		<use xlink:href="#SVGID_17_"  style="overflow:visible;"/>
	</clipPath>
	<g class="st13">
		<defs>
			<rect id="SVGID_19_" x="-1691.1" y="-1879.3" width="1113.7" height="4698"/>
		</defs>
		<clipPath id="SVGID_20_">
			<use xlink:href="#SVGID_19_"  style="overflow:visible;"/>
		</clipPath>
		<rect x="-1087.5" y="-1348.6" class="st14" width="112.3" height="112.3"/>
	</g>
</g>
<g>
	<text transform="matrix(1 0 0 1 -1082.7885 -1212.9408)"><tspan x="0" y="0" class="st4" style="font-family:'Ubuntu-Light'; font-size:14.9739px;">#</tspan><tspan x="9.8" y="0" class="st4" style="font-family:'Ubuntu-Light'; font-size:14.9739px;">F</tspan><tspan x="17.1" y="0" class="st4" style="font-family:'Ubuntu-Light'; font-size:14.9739px;">A</tspan><tspan x="26.7" y="0" class="st4" style="font-family:'Ubuntu-Light'; font-size:14.9739px;">F</tspan><tspan x="33.9" y="0" class="st4" style="font-family:'Ubuntu-Light'; font-size:14.9739px;">A</tspan><tspan x="43.5" y="0" class="st4" style="font-family:'Ubuntu-Light'; font-size:14.9739px;">F</tspan><tspan x="50.8" y="0" class="st4" style="font-family:'Ubuntu-Light'; font-size:14.9739px;">A</tspan></text>
</g>
<g>
	<defs>
		<path id="SVGID_21_" d="M-1202.6-1344h99.2c1,0,1.9,0.8,1.9,1.9v99.2c0,1-0.8,1.9-1.9,1.9h-99.2c-1,0-1.9-0.8-1.9-1.9v-99.2
			C-1204.5-1343.1-1203.6-1344-1202.6-1344z"/>
	</defs>
	<clipPath id="SVGID_22_">
		<use xlink:href="#SVGID_21_"  style="overflow:visible;"/>
	</clipPath>
	<g class="st15">
		<defs>
			<rect id="SVGID_23_" x="-1691.1" y="-1879.3" width="1113.7" height="4698"/>
		</defs>
		<clipPath id="SVGID_24_">
			<use xlink:href="#SVGID_23_"  style="overflow:visible;"/>
		</clipPath>
		<rect x="-1209.1" y="-1348.6" class="st16" width="112.3" height="112.3"/>
	</g>
</g>
<g>
	<text transform="matrix(1 0 0 1 -1204.4515 -1212.9408)" class="st4" style="font-family:'Ubuntu-Light'; font-size:14.9739px;">#0396FF</text>
</g>
<g>
	<defs>
		<path id="SVGID_25_" d="M-1324.2-1344h99.2c1,0,1.9,0.8,1.9,1.9v99.2c0,1-0.8,1.9-1.9,1.9h-99.2c-1,0-1.9-0.8-1.9-1.9v-99.2
			C-1326.1-1343.1-1325.3-1344-1324.2-1344z"/>
	</defs>
	<clipPath id="SVGID_26_">
		<use xlink:href="#SVGID_25_"  style="overflow:visible;"/>
	</clipPath>
	<g class="st17">
		<defs>
			<rect id="SVGID_27_" x="-1691.1" y="-1879.3" width="1113.7" height="4698"/>
		</defs>
		<clipPath id="SVGID_28_">
			<use xlink:href="#SVGID_27_"  style="overflow:visible;"/>
		</clipPath>
		<rect x="-1330.8" y="-1348.6" class="st18" width="112.3" height="112.3"/>
	</g>
</g>
<g>
	<text transform="matrix(1 0 0 1 -1326.1141 -1212.9408)"><tspan x="0" y="0" class="st4" style="font-family:'Ubuntu-Light'; font-size:14.9739px;">#144</tspan><tspan x="35.1" y="0" class="st4" style="font-family:'Ubuntu-Light'; font-size:14.9739px;">F</tspan><tspan x="42.4" y="0" class="st4" style="font-family:'Ubuntu-Light'; font-size:14.9739px;">A2</tspan></text>
</g>
<g>
	<defs>
		<path id="SVGID_29_" d="M-1446.8-1344h99.2c1,0,1.9,0.8,1.9,1.9v99.2c0,1-0.8,1.9-1.9,1.9h-99.2c-1,0-1.9-0.8-1.9-1.9v-99.2
			C-1448.7-1343.1-1447.9-1344-1446.8-1344z"/>
	</defs>
	<clipPath id="SVGID_30_">
		<use xlink:href="#SVGID_29_"  style="overflow:visible;"/>
	</clipPath>
	<g class="st19">
		<defs>
			<rect id="SVGID_31_" x="-1691.1" y="-1879.3" width="1113.7" height="4698"/>
		</defs>
		<clipPath id="SVGID_32_">
			<use xlink:href="#SVGID_31_"  style="overflow:visible;"/>
		</clipPath>
		<rect x="-1453.4" y="-1348.6" class="st20" width="112.3" height="112.3"/>
	</g>
</g>
<g>
	<text transform="matrix(1 0 0 1 -1448.7123 -1212.9408)" class="st4" style="font-family:'Ubuntu-Light'; font-size:14.9739px;">#F8D800</text>
</g>
<g>
	<defs>
		<path id="SVGID_33_" d="M-1568.5-1344h99.2c1,0,1.9,0.8,1.9,1.9v99.2c0,1-0.8,1.9-1.9,1.9h-99.2c-1,0-1.9-0.8-1.9-1.9v-99.2
			C-1570.4-1343.1-1569.5-1344-1568.5-1344z"/>
	</defs>
	<clipPath id="SVGID_34_">
		<use xlink:href="#SVGID_33_"  style="overflow:visible;"/>
	</clipPath>
	<g class="st21">
		<defs>
			<rect id="SVGID_35_" x="-1691.1" y="-1879.3" width="1113.7" height="4698"/>
		</defs>
		<clipPath id="SVGID_36_">
			<use xlink:href="#SVGID_35_"  style="overflow:visible;"/>
		</clipPath>
		<rect x="-1575.1" y="-1348.6" class="st22" width="112.3" height="112.3"/>
	</g>
</g>
<g>
	<text transform="matrix(1 0 0 1 -1570.3754 -1212.9408)" class="st4" style="font-family:'Ubuntu-Light'; font-size:14.9739px;">#FDEB71</text>
</g>
<path class="st0" d="M111-2376.5c-15.4,0-28,12.6-28,28v52.4"/>
<path class="st0" d="M164.9-2392.6c14.2,0,25.9,11.6,25.9,25.9v94.2"/>
<path class="st0" d="M211.5-1943.7c-47.5,0-86,38.5-86,86v41.3"/>
<path class="st0" d="M-10.1-1943.7c47.5,0,86,38.5,86,86v41.3"/>
<line class="st0" x1="100.7" y1="-1774.7" x2="100.7" y2="-2009.3"/>
<g>
	<g>
		<path class="st23" d="M144.2-1035.9H55.7c-3.3,0-6-2.7-6-6v-13.3c0-3.2,2.5-5.8,5.7-6c0,0,6.6-0.5,12.9-3.9
			c6.1-3.3,9.7-8.2,11-14.7h-92.2c-3.3,0-6-2.7-6-6v-137.9c0-3.3,2.7-6,6-6h62.5c3.3,0,6,2.7,6,6s-2.7,6-6,6H-6.8v125.9h92.7
			c3.3,0,6,2.7,6,6c0,17.9-9.9,27-18.3,31.4c-4.3,2.3-8.6,3.6-11.9,4.3v2.1h76.5v-2.1c-12.8-2.6-30.2-12.2-30.2-35.8
			c0-3.3,2.7-6,6-6h92.7v-125.9h-50.5c-3.3,0-6-2.7-6-6s2.7-6,6-6h56.5c3.3,0,6,2.7,6,6v137.9c0,3.3-2.7,6-6,6h-92.1
			c3.7,17.2,23,18.5,23.9,18.6c3.2,0.2,5.7,2.8,5.7,6v13.3C150.2-1038.6,147.5-1035.9,144.2-1035.9z"/>
	</g>
	<g>
		<path class="st24" d="M-24.6-1279.8c-11.4,0-20.6-9.2-20.6-20.6s9.2-20.6,20.6-20.6s20.6,9.2,20.6,20.6S-13.3-1279.8-24.6-1279.8z
			 M-24.6-1309c-4.7,0-8.6,3.9-8.6,8.6s3.9,8.6,8.6,8.6s8.6-3.9,8.6-8.6S-19.9-1309-24.6-1309z"/>
	</g>
	<g>
		<path class="st25" d="M100-1360.1c-11.4,0-20.6-9.2-20.6-20.6s9.2-20.6,20.6-20.6s20.6,9.2,20.6,20.6S111.3-1360.1,100-1360.1z
			 M100-1389.3c-4.7,0-8.6,3.9-8.6,8.6s3.9,8.6,8.6,8.6s8.6-3.9,8.6-8.6S104.7-1389.3,100-1389.3z"/>
	</g>
	<g>
		<path class="st24" d="M226.1-1279.8c-11.4,0-20.6-9.2-20.6-20.6s9.2-20.6,20.6-20.6s20.6,9.2,20.6,20.6S237.5-1279.8,226.1-1279.8
			z M226.1-1309c-4.7,0-8.6,3.9-8.6,8.6s3.9,8.6,8.6,8.6s8.6-3.9,8.6-8.6S230.9-1309,226.1-1309z"/>
	</g>
	<g>
		<path class="st24" d="M125.5-1167.1c-3.3,0-6-2.7-6-6v-41.3c0-50.7,41.3-92,92-92c3.3,0,6,2.7,6,6s-2.7,6-6,6
			c-44.1,0-80,35.9-80,80v41.3C131.5-1169.8,128.8-1167.1,125.5-1167.1z"/>
	</g>
	<g>
		<path class="st24" d="M75.9-1167.1c-3.3,0-6-2.7-6-6v-41.3c0-44.1-35.9-80-80-80c-3.3,0-6-2.7-6-6s2.7-6,6-6c50.7,0,92,41.3,92,92
			v41.3C81.9-1169.8,79.3-1167.1,75.9-1167.1z"/>
	</g>
	<g>
		<path class="st25" d="M100.7-1125.4c-3.3,0-6-2.7-6-6v-234.7c0-3.3,2.7-6,6-6s6,2.7,6,6v234.7
			C106.7-1128.1,104.1-1125.4,100.7-1125.4z"/>
	</g>
</g>
<path class="st0" d="M776.9-1727.9l56.6,9.8c6.6,2,13.2-2.9,13.2-9.8l0,0c0-4.3-2.7-8.1-6.7-9.6l-43.5-16.3
	c-16.2-6.1-33.6-8.2-50.8-6.3l-56,6.3v60l134.7,12.9c7.5,0.7,15-0.5,21.9-3.5l129-56.9c4-1.5,6.7-5.3,6.7-9.5l0,0
	c0-6.3-5.7-11.1-11.9-10l-123.4,33"/>
<path class="st0" d="M846.7-1727.9l96.8-50.8c2.6-1.1,5.4-1.3,8.1-0.4h0c7.3,2.3,10.3,11,6,17.3l-2.4,3.6"/>
<rect x="638.9" y="-1763.1" class="st0" width="50.9" height="91.2"/>
<polyline class="st0" points="895.6,-1991.4 927.8,-1991.4 927.8,-1962.7 "/>
<circle class="st26" cx="664.3" cy="-1694.5" r="9.3"/>
<polyline class="st0" points="927.8,-1991.4 785.3,-1848.9 746.4,-1887.7 673.6,-1814.9 "/>
<polyline class="st0" points="879.9,-1911.5 912.1,-1911.5 912.1,-1882.7 "/>
<polyline class="st0" points="911.5,-1910.9 868.5,-1867.9 817.5,-1918.9 713.5,-1814.9 "/>
<line class="st0" x1="638.9" y1="-1814.9" x2="982.1" y2="-1814.9"/>
<g>
	<g>
		<path class="st25" d="M828.6-1058.3c-1.6,0-3.2-0.1-4.7-0.2l-134.7-12.9c-3.1-0.3-5.4-2.9-5.4-6v-60c0-3.1,2.3-5.6,5.3-6l56-6.3
			c18.1-2,36.6,0.3,53.6,6.6l43.5,16.3c3.9,1.5,7,4.3,8.8,7.9l117.6-31.5c0.2,0,0.3-0.1,0.5-0.1c4.7-0.8,9.5,0.4,13.2,3.5
			c3.7,3.1,5.8,7.6,5.8,12.4c0,6.7-4.2,12.7-10.4,15.1l-128.8,56.9C842.5-1059.8,835.6-1058.3,828.6-1058.3z M695.7-1082.9
			l129.3,12.4c6.5,0.6,13-0.4,18.9-3.1l129-56.9c0.1-0.1,0.2-0.1,0.4-0.2c1.6-0.6,2.7-2.2,2.7-3.9c0-1.7-0.9-2.7-1.5-3.2
			c-0.5-0.4-1.7-1.1-3.2-0.9L852-1106.7c-1,3.3-3,6.1-5.9,8.3c-4.1,3-9.1,4-14,2.6l-56.3-9.8c-3.3-0.6-5.5-3.7-4.9-6.9
			c0.6-3.3,3.7-5.4,6.9-4.9l56.6,9.8c0.2,0,0.5,0.1,0.7,0.2c1.3,0.4,2.7,0.2,3.8-0.7c1.1-0.8,1.7-2,1.7-3.3c0-0.1,0-0.1,0-0.2
			c0-1.7-1.1-3.3-2.8-3.9l-43.5-16.3c-15.2-5.7-31.9-7.8-48-6l-50.7,5.7V-1082.9z"/>
	</g>
	<g>
		<path class="st25" d="M846.7-1105.5c-2.2,0-4.2-1.2-5.3-3.2c-1.5-2.9-0.4-6.6,2.5-8.1l96.8-50.8c0.1-0.1,0.3-0.1,0.4-0.2
			c3.9-1.7,8.3-1.9,12.3-0.6c5.3,1.7,9.3,5.7,11.2,10.9s1.1,10.9-2,15.5l-2.4,3.6c-1.9,2.7-5.6,3.5-8.3,1.6
			c-2.7-1.9-3.5-5.6-1.6-8.3l2.4-3.6c1-1.4,1.2-3.2,0.6-4.8s-1.8-2.9-3.5-3.4c-1.2-0.4-2.5-0.3-3.7,0.1l-96.6,50.7
			C848.6-1105.7,847.6-1105.5,846.7-1105.5z"/>
	</g>
	<g>
		<path class="st24" d="M689.7-1049.5h-50.9c-3.3,0-6-2.7-6-6v-91.2c0-3.3,2.7-6,6-6h50.9c3.3,0,6,2.7,6,6v91.2
			C695.7-1052.1,693-1049.5,689.7-1049.5z M644.9-1061.5h38.9v-79.2h-38.9V-1061.5z"/>
	</g>
	<g>
		<path class="st24" d="M927.8-1340.3c-3.3,0-6-2.7-6-6v-22.8h-26.2c-3.3,0-6-2.7-6-6s2.7-6,6-6h32.2c3.3,0,6,2.7,6,6v28.8
			C933.8-1343,931.1-1340.3,927.8-1340.3z"/>
	</g>
	<g>
		<circle class="st27" cx="664.3" cy="-1078.1" r="9.3"/>
	</g>
	<g>
		<path class="st24" d="M673.6-1192.5c-1.5,0-3.1-0.6-4.2-1.8c-2.3-2.3-2.3-6.1,0-8.5l72.8-72.8c2.3-2.3,6.1-2.3,8.5,0l34.6,34.6
			l138.3-138.3c2.3-2.3,6.1-2.3,8.5,0c2.3,2.3,2.3,6.1,0,8.5l-142.5,142.5c-2.3,2.3-6.1,2.3-8.5,0l-34.6-34.6l-68.6,68.6
			C676.7-1193.1,675.2-1192.5,673.6-1192.5z"/>
	</g>
	<g>
		<path class="st23" d="M912.1-1260.3c-3.3,0-6-2.7-6-6v-22.8h-26.2c-3.3,0-6-2.7-6-6s2.7-6,6-6h32.2c3.3,0,6,2.7,6,6v28.8
			C918.1-1263,915.4-1260.3,912.1-1260.3z"/>
	</g>
	<g>
		<path class="st23" d="M713.5-1192.5c-1.5,0-3.1-0.6-4.2-1.8c-2.3-2.3-2.3-6.1,0-8.5l104-104c2.3-2.3,6.1-2.3,8.5,0l46.8,46.8
			l38.8-38.8c2.3-2.3,6.1-2.3,8.5,0c2.3,2.3,2.3,6.1,0,8.5l-43,43c-2.3,2.3-6.1,2.3-8.5,0l-46.8-46.8l-99.8,99.8
			C716.6-1193.1,715.1-1192.5,713.5-1192.5z"/>
	</g>
	<g>
		<path class="st24" d="M982.1-1192.5H638.9c-3.3,0-6-2.7-6-6s2.7-6,6-6h343.2c3.3,0,6,2.7,6,6S985.4-1192.5,982.1-1192.5z"/>
	</g>
</g>
<line class="st0" x1="-1215.1" y1="-1770.1" x2="-1215.1" y2="-1881.3"/>
<path class="st0" d="M-640.7-1962.7c-6.5-6.9-15.8-11.2-26-11.2c-19.7,0-35.7,16-35.7,35.7c0,19.7,16,35.7,35.7,35.7h18.3h83.5h15.4
	c19.7,0,35.7-16,35.7-35.7c0-19.7-16-35.7-35.7-35.7c-9.4,0-18,3.6-24.3,9.6"/>
<path class="st1" d="M-649.1-1969.3c0,0,12.2-4,15.7-12.2"/>
<path class="st0" d="M-585.4-1998.8c-13.1-10.8-32.1-10.9-45.2-0.1"/>
<path class="st0" d="M-547.8-1975.4c-1.7-4.8-4.5-9.3-8.4-13.2c-10.5-10.5-25.8-13.1-38.7-7.8"/>
<path class="st0" d="M-599.1-1963.4c0-19.7-16-35.7-35.7-35.7c-16,0-29.6,10.6-34.1,25.1"/>
<path class="st1" d="M-547.8-1943.1c-6.7,0-12.8,7.1-12.8,13.7"/>
<path class="st1" d="M-677.8-1955.1c7.8,0,15.6,4.8,15.6,15.1"/>
<path class="st1" d="M-603.7-1929c0,0-3-5.5-12.4-5.2"/>
<rect x="-737.7" y="-1902.5" class="st0" width="259.1" height="199.7"/>
<path class="st0" d="M-737.7-1902.5c0-71.6,58-129.6,129.6-129.6s129.6,58,129.6,129.6"/>
<circle class="st0" cx="-656.5" cy="-1841.4" r="26.4"/>
<circle class="st0" cx="-556.9" cy="-1841.4" r="26.4"/>
<path class="st0" d="M-1208.1-1691c8.6-8.6,22.5-8.6,31,0l2.5,2.5c8.6,8.6,22.5,8.6,31,0l2.8-2.8c8.6-8.6,22.5-8.6,31,0l1.3,1.3
	c8.6,8.6,22.5,8.6,31,0v0c8.6-8.6,22.5-8.6,31,0"/>
<path class="st0" d="M-741.5-1768.4c-18.9,0-34.3-15.4-34.3-34.3c0-18.9,15.4-34.3,34.3-34.3"/>
<polyline class="st0" points="-775.8,-1802.7 -795.8,-1822.7 -795.8,-1886.6 "/>
<path class="st0" d="M-478.5-1768.4c18.9,0,34.3-15.4,34.3-34.3c0-18.9-15.4-34.3-34.3-34.3"/>
<polyline class="st0" points="-444.3,-1802.7 -424.2,-1822.7 -424.2,-1886.6 "/>
<rect x="-707.2" y="-1791.6" class="st0" width="198.8" height="64.9"/>
<line class="st0" x1="-707.2" y1="-1726.7" x2="-707.2" y2="-1791.6"/>
<line class="st0" x1="-667.4" y1="-1726.7" x2="-667.4" y2="-1791.6"/>
<line class="st0" x1="-627.7" y1="-1726.7" x2="-627.7" y2="-1791.6"/>
<line class="st0" x1="-587.9" y1="-1726.7" x2="-587.9" y2="-1791.6"/>
<line class="st0" x1="-548.1" y1="-1726.7" x2="-548.1" y2="-1791.6"/>
<line class="st0" x1="-508.4" y1="-1726.7" x2="-508.4" y2="-1791.6"/>
<g>
	<g>
		<path class="st23" d="M-775.8-1135.2c-1.5,0-3.1-0.6-4.2-1.8l-20-20c-1.1-1.1-1.8-2.7-1.8-4.2v-63.9c0-3.3,2.7-6,6-6s6,2.7,6,6
			v61.4l18.3,18.3c2.3,2.3,2.3,6.1,0,8.5C-772.7-1135.8-774.2-1135.2-775.8-1135.2z"/>
	</g>
	<g>
		<path class="st23" d="M-444.3-1135.2c-1.5,0-3.1-0.6-4.2-1.8c-2.3-2.3-2.3-6.1,0-8.5l18.3-18.3v-61.4c0-3.3,2.7-6,6-6s6,2.7,6,6
			v63.9c0,1.6-0.6,3.1-1.8,4.2l-20,20C-441.2-1135.8-442.7-1135.2-444.3-1135.2z"/>
	</g>
	<g>
		<path class="st24" d="M-741.5-1100.9c-22.2,0-40.3-18.1-40.3-40.3s18.1-40.3,40.3-40.3c3.3,0,6,2.7,6,6s-2.7,6-6,6
			c-15.6,0-28.3,12.7-28.3,28.3c0,15.6,12.7,28.3,28.3,28.3c3.3,0,6,2.7,6,6S-738.2-1100.9-741.5-1100.9z"/>
	</g>
	<g>
		<path class="st24" d="M-478.5-1100.9c-3.3,0-6-2.7-6-6s2.7-6,6-6c15.6,0,28.3-12.7,28.3-28.3c0-15.6-12.7-28.3-28.3-28.3
			c-3.3,0-6-2.7-6-6s2.7-6,6-6c22.2,0,40.3,18.1,40.3,40.3S-456.3-1100.9-478.5-1100.9z"/>
	</g>
	<g>
		<path class="st24" d="M-667.4-1059.3c-3.3,0-6-2.7-6-6v-64.9c0-3.3,2.7-6,6-6s6,2.7,6,6v64.9
			C-661.4-1062-664.1-1059.3-667.4-1059.3z"/>
	</g>
	<g>
		<path class="st24" d="M-627.7-1059.3c-3.3,0-6-2.7-6-6v-64.9c0-3.3,2.7-6,6-6s6,2.7,6,6v64.9
			C-621.7-1062-624.3-1059.3-627.7-1059.3z"/>
	</g>
	<g>
		<path class="st24" d="M-587.9-1059.3c-3.3,0-6-2.7-6-6v-64.9c0-3.3,2.7-6,6-6s6,2.7,6,6v64.9
			C-581.9-1062-584.6-1059.3-587.9-1059.3z"/>
	</g>
	<g>
		<path class="st24" d="M-548.1-1059.3c-3.3,0-6-2.7-6-6v-64.9c0-3.3,2.7-6,6-6s6,2.7,6,6v64.9
			C-542.1-1062-544.8-1059.3-548.1-1059.3z"/>
	</g>
	<g>
		<path class="st24" d="M-478.5-1235.1c-3.3,0-6-2.7-6-6c0-68.1-55.4-123.6-123.6-123.6c-68.1,0-123.6,55.4-123.6,123.6
			c0,3.3-2.7,6-6,6s-6-2.7-6-6c0-74.8,60.8-135.6,135.6-135.6s135.6,60.8,135.6,135.6C-472.5-1237.8-475.2-1235.1-478.5-1235.1z"/>
	</g>
	<g>
		<path class="st25" d="M-542.9-1317.9c-2.1-5-5.1-9.5-9-13.4c-8.5-8.5-20.1-12.8-31.8-12.2c-14.5-10.6-34.4-10.6-49,0
			c-0.7,0-1.5-0.1-2.2-0.1c-17.1,0-32.1,10.2-38.5,25.7c-19.8,3.2-35,20.4-35,41.2c0,23,18.7,41.7,41.7,41.7h117.2
			c23,0,41.7-18.7,41.7-41.7C-507.8-1297.5-523-1314.7-542.9-1317.9z M-549.5-1247.1h-117.2c-16.4,0-29.7-13.3-29.7-29.7
			c0-16.4,13.3-29.7,29.7-29.7c8.3,0,16,3.3,21.6,9.3c2.3,2.4,6.1,2.5,8.5,0.3c2.4-2.3,2.5-6.1,0.3-8.5c-0.5-0.5-0.9-1-1.4-1.4
			c3.8-2.5,7.8-6.1,9.9-10.9c1.3-3-0.1-6.6-3.1-7.9c-3-1.3-6.6,0.1-7.9,3.1c-1.6,3.6-6.6,6.5-9.9,8c-3.5-1.7-7.2-2.8-11.1-3.5
			c5.3-8.4,14.7-13.7,25-13.7c16.4,0,29.7,13.3,29.7,29.7c0,3.3,2.7,6,6,6s6-2.7,6-6c0-15.9-8.9-29.7-22-36.7
			c5-1.2,10.3-1.1,15.3,0.3c-1,1.6-1.3,3.7-0.6,5.6c1.2,3.1,4.7,4.5,7.8,3.3c2.4-1,5-1.6,7.5-1.9c0.3,0,0.6-0.1,0.9-0.1
			c8.7-0.8,17.4,2.2,23.8,8.6c1.5,1.5,2.9,3.2,4,5c-8.1,1.3-15.6,5-21.6,10.6c-2.4,2.3-2.6,6.1-0.3,8.5c2.3,2.4,6.1,2.6,8.5,0.3
			c5.5-5.1,12.7-8,20.3-8c16.4,0,29.7,13.3,29.7,29.7C-519.8-1260.4-533.2-1247.1-549.5-1247.1z"/>
		<path class="st25" d="M-547.8-1287.6c-9.7,0-18.8,9.6-18.8,19.7c0,3.3,2.7,6,6,6s6-2.7,6-6c0-3.5,3.7-7.7,6.8-7.7c3.3,0,6-2.7,6-6
			S-544.4-1287.6-547.8-1287.6z"/>
		<path class="st25" d="M-599.8-1274.9c-4.4-8.6-17.1-12.4-26.1-7.8c-2.9,1.5-4.1,5.1-2.6,8.1c1.5,2.9,5.1,4.1,8.1,2.6
			c3.1-1.6,8.5-0.2,9.9,2.6c1.5,2.9,5.1,4.1,8.1,2.6C-599.4-1268.4-598.3-1272-599.8-1274.9z"/>
		<path class="st25" d="M-677.8-1299.6c-3.3,0-6,2.7-6,6s2.7,6,6,6c1.6,0,9.6,0.4,9.6,9.1c0,3.3,2.7,6,6,6s6-2.7,6-6
			C-656.1-1292.4-667-1299.6-677.8-1299.6z"/>
	</g>
	<g>
		<path class="st24" d="M-478.5-1035.4h-259.1c-3.3,0-6-2.7-6-6v-199.7c0-3.3,2.7-6,6-6h259.1c3.3,0,6,2.7,6,6v199.7
			C-472.5-1038-475.2-1035.4-478.5-1035.4z M-731.7-1047.4h247.1v-187.7h-247.1V-1047.4z"/>
	</g>
	<g>
		<path class="st24" d="M-656.5-1153.6c-17.8,0-32.4-14.5-32.4-32.4s14.5-32.4,32.4-32.4s32.4,14.5,32.4,32.4
			S-638.6-1153.6-656.5-1153.6z M-656.5-1206.3c-11.2,0-20.4,9.1-20.4,20.4s9.1,20.4,20.4,20.4s20.4-9.1,20.4-20.4
			S-645.3-1206.3-656.5-1206.3z"/>
	</g>
	<g>
		<path class="st24" d="M-556.9-1153.6c-17.8,0-32.4-14.5-32.4-32.4s14.5-32.4,32.4-32.4s32.4,14.5,32.4,32.4
			S-539.1-1153.6-556.9-1153.6z M-556.9-1206.3c-11.2,0-20.4,9.1-20.4,20.4s9.1,20.4,20.4,20.4c11.2,0,20.4-9.1,20.4-20.4
			S-545.7-1206.3-556.9-1206.3z"/>
	</g>
	<g>
		<path class="st24" d="M-508.4-1059.3h-198.8c-3.3,0-6-2.7-6-6v-64.9c0-3.3,2.7-6,6-6h198.8c3.3,0,6,2.7,6,6v64.9
			C-502.4-1062-505.1-1059.3-508.4-1059.3z M-701.2-1071.3h186.8v-52.9h-186.8V-1071.3z"/>
	</g>
</g>
<path class="st1" d="M-1137-594.4c6.4,11.6,18.7,19.5,32.9,19.5c20.7,0,37.5-16.8,37.5-37.5c0-20.7-16.8-37.5-37.5-37.5
	c-14.2,0-26.6,7.9-32.9,19.5h-17.8v-69.5h17.8c6.4,11.6,18.7,19.5,32.9,19.5c20.7,0,37.5-16.8,37.5-37.5c0-20.7-16.8-37.5-37.5-37.5
	c-14.2,0-26.6,7.9-32.9,19.5h-17.8v-19.2c0-6.6-5.4-12-12-12h-19.2v-17.8c11.6-6.4,19.5-18.7,19.5-32.9c0-20.7-16.8-37.5-37.5-37.5
	s-37.5,16.8-37.5,37.5c0,14.2,7.9,26.6,19.5,32.9v17.8h-69.5v-17.8c11.6-6.4,19.5-18.7,19.5-32.9c0-20.7-16.8-37.5-37.5-37.5
	s-37.5,16.8-37.5,37.5c0,14.2,7.9,26.6,19.5,32.9v17.8h-69.5v-17.8c11.6-6.4,19.5-18.7,19.5-32.9c0-20.7-16.8-37.5-37.5-37.5
	s-37.5,16.8-37.5,37.5c0,14.2,7.9,26.6,19.5,32.9v17.8h-19.2c-6.6,0-12,5.4-12,12v19.2h-17.8c-6.4-11.6-18.7-19.5-32.9-19.5
	c-20.7,0-37.5,16.8-37.5,37.5c0,20.7,16.8,37.5,37.5,37.5c14.2,0,26.6-7.9,32.9-19.5h17.8v69.5h-17.8c-6.4-11.6-18.7-19.5-32.9-19.5
	c-20.7,0-37.5,16.8-37.5,37.5c0,20.7,16.8,37.5,37.5,37.5c14.2,0,26.6-7.9,32.9-19.5h17.8v69.5h-17.8c-6.4-11.6-18.7-19.5-32.9-19.5
	c-20.7,0-37.5,16.8-37.5,37.5c0,20.7,16.8,37.5,37.5,37.5c14.2,0,26.6-7.9,32.9-19.5h17.8v19.2c0,6.6,5.4,12,12,12h19.2v17.8
	c-11.6,6.4-19.5,18.7-19.5,32.9c0,20.7,16.8,37.5,37.5,37.5s37.5-16.8,37.5-37.5c0-14.2-7.9-26.6-19.5-32.9v-17.8h69.5v17.8
	c-11.6,6.4-19.5,18.7-19.5,32.9c0,20.7,16.8,37.5,37.5,37.5s37.5-16.8,37.5-37.5c0-14.2-7.9-26.6-19.5-32.9v-17.8h69.5v17.8
	c-11.6,6.4-19.5,18.7-19.5,32.9c0,20.7,16.8,37.5,37.5,37.5s37.5-16.8,37.5-37.5c0-14.2-7.9-26.6-19.5-32.9v-17.8h19.2
	c6.6,0,12-5.4,12-12V-489h17.8c6.4,11.6,18.7,19.5,32.9,19.5c20.7,0,37.5-16.8,37.5-37.5c0-20.7-16.8-37.5-37.5-37.5
	c-14.2,0-26.6,7.9-32.9,19.5h-17.8v-69.5H-1137z M-1104.1-630.3c9.9,0,18,8,18,18c0,9.9-8,18-18,18s-18-8-18-18
	C-1122.1-622.3-1114-630.3-1104.1-630.3z M-1104.1-735.7c9.9,0,18,8,18,18c0,9.9-8,18-18,18s-18-8-18-18
	C-1122.1-727.7-1114-735.7-1104.1-735.7z M-1204-830.9c7.3,0,13.2,5.9,13.2,13.2s-5.9,13.2-13.2,13.2s-13.2-5.9-13.2-13.2
	S-1211.3-830.9-1204-830.9z M-1514.8-699.8c-9.9,0-18-8-18-18c0-9.9,8-18,18-18c9.9,0,18,8,18,18
	C-1496.8-707.8-1504.9-699.8-1514.8-699.8z M-1514.8-594.4c-9.9,0-18-8-18-18c0-9.9,8-18,18-18c9.9,0,18,8,18,18
	C-1496.8-602.4-1504.9-594.4-1514.8-594.4z M-1514.8-489c-9.9,0-18-8-18-18c0-9.9,8-18,18-18c9.9,0,18,8,18,18
	C-1496.8-497-1504.9-489-1514.8-489z M-1414.9-389c-9.9,0-18-8-18-18c0-9.9,8-18,18-18s18,8,18,18
	C-1396.9-397.1-1404.9-389-1414.9-389z M-1309.4-389c-9.9,0-18-8-18-18c0-9.9,8-18,18-18s18,8,18,18
	C-1291.5-397.1-1299.5-389-1309.4-389z M-1204-389c-9.9,0-18-8-18-18c0-9.9,8-18,18-18s18,8,18,18
	C-1186.1-397.1-1194.1-389-1204-389z M-1104.1-524.9c9.9,0,18,8,18,18c0,9.9-8,18-18,18s-18-8-18-18
	C-1122.1-516.9-1114-524.9-1104.1-524.9z"/>
<polygon points="-686.8,-747.9 -743,-691.7 -743,-476.8 -471.9,-476.8 -471.9,-747.9 "/>
<circle class="st28" cx="-657.8" cy="-512.8" r="11.7"/>
<circle class="st29" cx="-807.1" cy="-458.9" r="11.7"/>
<circle class="st28" cx="-708" cy="-512.8" r="11.7"/>
<circle class="st28" cx="-607.5" cy="-512.8" r="11.7"/>
<circle class="st28" cx="-557.2" cy="-512.8" r="11.7"/>
<circle class="st28" cx="-506.9" cy="-512.8" r="11.7"/>
<circle class="st28" cx="-506.9" cy="-563" r="11.7"/>
<circle class="st28" cx="-506.9" cy="-613.2" r="11.7"/>
<circle class="st28" cx="-506.9" cy="-663.3" r="11.7"/>
<circle class="st28" cx="-708" cy="-563" r="11.7"/>
<circle class="st28" cx="-708" cy="-613.2" r="11.7"/>
<circle class="st28" cx="-708" cy="-663.3" r="11.7"/>
<circle class="st28" cx="-657.8" cy="-713.5" r="11.7"/>
<circle class="st28" cx="-607.5" cy="-713.5" r="11.7"/>
<circle class="st28" cx="-557.2" cy="-713.5" r="11.7"/>
<circle class="st28" cx="-506.9" cy="-713.5" r="11.7"/>
<path class="st30" d="M-562.8-591.6c0-1.8-0.1-3.5-0.4-5.2l5.5-5.1c-1.9-7-5.6-13.3-10.6-18.3l-7.2,2.2c-2.7-2.2-5.7-3.9-8.9-5.2
	l-1.7-7.3c-3.4-0.9-6.9-1.4-10.6-1.4s-7.2,0.5-10.6,1.4l-1.7,7.3c-3.3,1.3-6.3,3-8.9,5.2l-7.2-2.2c-5,5-8.7,11.3-10.6,18.3l5.5,5.1
	c-0.3,1.7-0.4,3.4-0.4,5.2c0,1.8,0.1,3.5,0.4,5.2l-5.5,5.1c1.9,7,5.6,13.3,10.6,18.3l7.2-2.2c2.7,2.2,5.7,3.9,8.9,5.2l1.7,7.3
	c3.4,0.9,6.9,1.4,10.6,1.4s7.2-0.5,10.6-1.4l1.7-7.3c3.3-1.3,6.3-3,8.9-5.2l7.2,2.2c5-5,8.7-11.3,10.6-18.3l-5.5-5.1
	C-562.9-588.1-562.8-589.9-562.8-591.6z M-596.7-573.7c-9.9,0-17.9-8-17.9-17.9s8-17.9,17.9-17.9s17.9,8,17.9,17.9
	S-586.8-573.7-596.7-573.7z"/>
<path class="st30" d="M-609.9-659.9c-0.5-1-1.1-1.9-1.7-2.8l1.6-4.4c-3-3.4-6.8-5.8-11-7.2l-3.4,3.2c-2.1-0.4-4.3-0.6-6.4-0.4
	l-3-3.6c-2.1,0.4-4.2,1.2-6.3,2.2c-2,1-3.9,2.3-5.5,3.8l1.1,4.5c-1.5,1.6-2.6,3.4-3.5,5.4l-4.6,0.8c-1.4,4.2-1.7,8.7-0.7,13.2
	l4.5,1.3c0.3,1,0.7,2,1.2,3c0.5,1,1.1,1.9,1.7,2.8l-1.6,4.4c3,3.4,6.8,5.8,11,7.2l3.4-3.2c2.1,0.4,4.3,0.6,6.4,0.4l3,3.6
	c2.1-0.4,4.2-1.2,6.3-2.2c2-1,3.9-2.3,5.5-3.8l-1.1-4.5c1.5-1.6,2.6-3.4,3.5-5.4l4.6-0.8c1.4-4.2,1.7-8.7,0.7-13.2l-4.5-1.3
	C-609-657.9-609.4-658.9-609.9-659.9z M-623.7-640.4c-5.5,2.8-12.2,0.6-15-4.9c-2.8-5.5-0.6-12.2,4.9-15c5.5-2.8,12.2-0.6,15,4.9
	C-616-649.9-618.2-643.2-623.7-640.4z"/>
<polyline class="st29" points="-659.2,-476.8 -659.2,-458.9 -795.8,-458.9 "/>
<circle class="st29" cx="-410.2" cy="-766.4" r="11.7"/>
<polyline class="st29" points="-567.4,-747.9 -567.4,-766.4 -421.5,-766.4 "/>
<circle class="st29" cx="-761.5" cy="-811.2" r="11.7"/>
<polyline class="st29" points="-743,-663.3 -761.5,-663.3 -761.5,-799.8 "/>
<circle class="st29" cx="-687.8" cy="-415.1" r="11.7"/>
<polyline class="st29" points="-743,-613.2 -761.5,-613.2 -761.5,-415.1 -699.5,-415.1 "/>
<circle class="st29" cx="-527.9" cy="-800.8" r="11.7"/>
<polyline class="st29" points="-471.9,-613.2 -453.4,-613.2 -453.4,-800.8 -515.5,-800.8 "/>
<circle class="st29" cx="-419.5" cy="-533.3" r="11.7"/>
<polyline class="st29" points="-613.3,-477.3 -613.3,-458.9 -419.5,-458.9 -419.5,-520.9 "/>
<circle class="st29" cx="-792.6" cy="-692" r="11.7"/>
<polyline class="st29" points="-613.3,-747.9 -613.3,-766.4 -792.6,-766.4 -792.6,-704.3 "/>
<circle class="st29" cx="-453.4" cy="-415.1" r="11.7"/>
<polyline class="st29" points="-471.9,-563 -453.4,-563 -453.4,-426.4 "/>
<circle class="st29" cx="-506.9" cy="-415.1" r="11.7"/>
<line class="st29" x1="-506.9" y1="-476.8" x2="-506.9" y2="-426.7"/>
<circle class="st29" cx="-804.8" cy="-512.8" r="11.7"/>
<line class="st29" x1="-743" y1="-512.8" x2="-793.1" y2="-512.8"/>
<circle class="st29" cx="-657.8" cy="-809.6" r="11.7"/>
<line class="st29" x1="-657.8" y1="-747.9" x2="-657.8" y2="-798"/>
<circle class="st29" cx="-410.2" cy="-713.5" r="11.7"/>
<line class="st29" x1="-471.9" y1="-713.5" x2="-421.9" y2="-713.5"/>
<g>
	<path d="M-700.3,181.3h23.2v27.4h13.8v-27.4h39.1v27.4h13.8v-27.4h39.1v27.4h13.8v-27.5c10.8-0.5,19.6-9.3,19.6-20.3h27.4v-13.8
		H-538V108h27.4V94.2H-538V55.1h27.4V41.3H-538V20.1h-19.6V-7.2h-13.8v27.4h-39.1V-7.2h-13.8v27.4h-39.1V-7.2h-13.8v27.4h-23.2v21.2
		h-27.4v13.8h27.4v39.1h-27.4V108h27.4v39.1h-27.4v13.8h27.4V181.3z M-686.5,33.9h134.8v126.9c0,3.7-3,6.7-6.6,6.7h-128.1V33.9z"/>
	<path d="M-651.5,133.5h64.8V68.7h-64.8V133.5z M-637.7,82.5h37.2v37.2h-37.2V82.5z"/>
</g>
<g>
	<path d="M127.2,123V78.4c0-2.3-1.9-4.2-4.2-4.2H78.5c-2.3,0-4.2,1.9-4.2,4.2V123c0,2.3,1.9,4.2,4.2,4.2H123
		C125.3,127.2,127.2,125.3,127.2,123z M118.8,118.8H82.7V82.6h36.1V118.8z"/>
	<path d="M104.9,56V35c9.5-2.3,15.4-11.9,13.1-21.5C115.7,4,106.1-1.8,96.5,0.5S81.2,12.4,83.5,22c1.6,6.5,6.6,11.5,13.1,13.1v21
		H104.9z M91.4,17.7c0-5.2,4.2-9.4,9.3-9.4s9.4,4.2,9.4,9.3s-4.2,9.4-9.3,9.4c0,0,0,0,0,0C95.6,27,91.4,22.9,91.4,17.7z"/>
	<path d="M96.5,145.4v21c-9.5,2.3-15.4,11.9-13.1,21.5c2.3,9.5,11.9,15.4,21.5,13.1s15.4-11.9,13.1-21.5
		c-1.6-6.5-6.6-11.5-13.1-13.1v-21H96.5z M110.1,183.7c0,5.2-4.2,9.4-9.4,9.4s-9.4-4.2-9.4-9.4c0-5.2,4.2-9.4,9.4-9.4l0,0
		C105.9,174.3,110.1,178.5,110.1,183.7z"/>
	<path d="M159.5,59.8c9.8,0,17.8-7.9,17.8-17.7s-7.9-17.8-17.7-17.8c-9.8,0-17.8,7.9-17.8,17.7c0,3.3,0.9,6.5,2.6,9.2l-14.9,14.9
		l5.9,5.9l14.9-14.9C153.1,58.9,156.3,59.8,159.5,59.8z M152.8,35.4c3.7-3.7,9.6-3.7,13.2,0s3.7,9.6,0,13.2c-3.7,3.7-9.6,3.7-13.2,0
		c0,0,0,0,0,0C149.2,45,149.1,39.1,152.8,35.4C152.8,35.4,152.8,35.4,152.8,35.4z"/>
	<path d="M66.2,129.3l-14.9,14.9c-8.4-5.1-19.3-2.4-24.4,5.9s-2.4,19.3,5.9,24.4c8.4,5.1,19.3,2.4,24.4-5.9c3.5-5.7,3.5-12.8,0-18.5
		l14.9-14.9L66.2,129.3z M48.7,166c-3.5,3.8-9.4,4.1-13.2,0.6c-3.8-3.5-4.1-9.4-0.6-13.2c0.2-0.2,0.4-0.4,0.6-0.6l0,0
		c3.8-3.5,9.7-3.2,13.2,0.6C51.9,157,51.9,162.4,48.7,166z"/>
	<path d="M172,146.9c-5.8-5.8-14.8-6.9-21.8-2.6l-14.9-14.9l-5.9,5.9l14.9,14.9c-4.2,7-3.1,16,2.6,21.7l0,0c7,7,18.2,7,25.2,0
		c7-7,7-18.2,0-25.2l0,0L172,146.9z M166,166c-3.7,3.7-9.6,3.7-13.2,0c-3.7-3.7-3.7-9.6,0-13.2s9.6-3.7,13.2,0c0,0,0,0,0,0
		C169.7,156.4,169.7,162.3,166,166C166.1,166,166.1,166,166,166L166,166z"/>
	<path d="M57.2,51.2c4.3-7,3.2-16-2.6-21.8l0,0c-6.9-6.9-18.2-7-25.1,0s-7,18.2,0,25.1c5.8,5.8,14.8,6.9,21.8,2.6l14.9,14.9l5.9-5.9
		L57.2,51.2z M35.4,48.6c-3.8-3.5-4.1-9.4-0.6-13.2s9.4-4.1,13.2-0.6c0.2,0.2,0.4,0.4,0.6,0.6l0,0c3.8,3.5,4.1,9.4,0.6,13.2
		c-3.5,3.8-9.4,4.1-13.2,0.6C35.8,49.1,35.6,48.8,35.4,48.6z"/>
	<path d="M183.7,82.9c-8.2,0-15.3,5.6-17.2,13.6h-21v8.4h21c2.3,9.5,11.9,15.3,21.4,13c9.5-2.3,15.3-11.9,13-21.4
		C199,88.5,191.9,82.9,183.7,82.9z M183.7,110.1c-5.2,0-9.4-4.2-9.4-9.4s4.2-9.4,9.4-9.4c5.2,0,9.4,4.2,9.4,9.4l0,0
		C193.1,105.9,188.9,110.1,183.7,110.1z"/>
	<path d="M17.7,118.5c8.2,0,15.3-5.6,17.2-13.6h21v-8.4H35C32.6,87,23,81.2,13.5,83.5s-15.3,11.9-13,21.4
		C2.5,112.9,9.6,118.5,17.7,118.5z M17.7,91.3c5.2,0,9.4,4.2,9.4,9.4c0,5.2-4.2,9.4-9.4,9.4s-9.4-4.2-9.4-9.4l0,0
		C8.4,95.5,12.6,91.3,17.7,91.3z"/>
	<rect x="93.9" y="96.5" width="13.6" height="8.4"/>
</g>
<g>
	<path d="M900.6,193.5c-12.8,0-27.4-15.1-30.9-19l-33.3-33.3c-1.1-1.1-1.8-2.7-1.8-4.3c0-1.3,0.5-2.6,1.2-3.6l-4.6-4.6
		c-11.9,8.4-26.1,13-41,13c-19,0-36.9-7.4-50.3-20.8c-13.4-13.4-20.8-31.3-20.8-50.3c0-19,7.4-36.9,20.8-50.3
		c27.7-27.7,72.8-27.7,100.6,0c0,0,0,0,0,0c25.2,25.2,27.5,64.6,7,92.4l4.8,4.8c2.4-1.9,5.8-1.7,8,0.5c4.4,4.4,43.5,43.6,48.8,51.7
		c5.9,8.9,3.6,16.6,1.3,19.7c-0.3,0.4-0.7,0.8-1.1,1.2C906.6,192.6,903.7,193.5,900.6,193.5z M849.2,137.1l29,29
		c0.1,0.1,0.1,0.1,0.2,0.2c7.3,8,18.2,15.8,22.5,15.2c0.1-1-0.1-2.8-1.7-5.2c-3.2-4.9-26.7-29-43.2-45.7L849.2,137.1z M790.3,11.5
		c-15.1,0-30.3,5.8-41.8,17.3c-11.2,11.2-17.3,26-17.3,41.8c0,15.8,6.2,30.6,17.3,41.8c11.2,11.2,26,17.3,41.8,17.3
		c15.8,0,30.6-6.2,41.8-17.3c23.1-23.1,23.1-60.6,0-83.6C820.6,17.2,805.4,11.5,790.3,11.5z"/>
</g>
<g>
	<rect x="758.6" y="81.5" width="12.9" height="19.9"/>
</g>
<g>
	<rect x="784.2" y="63.7" width="12.9" height="37.7"/>
</g>
<g>
	<rect x="809.8" y="43.3" width="12.9" height="58.1"/>
</g>
</svg>
